HIERARCHY
ROOT Hips
{
 OFFSET 0.000000 0.000000 0.000000
 CHANNELS 6 Xposition Yposition Zposition Yrotation Xrotation Zrotation
 JOINT Chest
 {
  OFFSET 0.000000 10.354800 0.006500
  CHANNELS 3 Yrotation Xrotation Zrotation
  JOINT Chest2
  {
   OFFSET 0.000000 10.435800 -0.013200
   CHANNELS 3 Yrotation Xrotation Zrotation
   JOINT Chest3
   {
    OFFSET 0.000000 10.393700 0.000000
    CHANNELS 3 Yrotation Xrotation Zrotation
    JOINT Chest4
    {
     OFFSET 0.000000 10.383100 0.000000
     CHANNELS 3 Yrotation Xrotation Zrotation
     JOINT Neck
     {
      OFFSET 0.000000 15.694000 0.000000
      CHANNELS 3 Yrotation Xrotation Zrotation
      JOINT Head
      {
       OFFSET 0.000000 9.711000 -0.028000
       CHANNELS 3 Yrotation Xrotation Zrotation
       End Site
       {
        OFFSET 0.000000 18.578700 -0.014800
       }
      }
     }
     JOINT RightCollar
     {
      OFFSET -3.157200 10.367500 0.000000
      CHANNELS 3 Yrotation Xrotation Zrotation
      JOINT RightShoulder
      {
       OFFSET -14.482500 0.000000 0.000000
       CHANNELS 3 Yrotation Xrotation Zrotation
       JOINT RightElbow
       {
        OFFSET 0.000000 -31.707800 0.000000
        CHANNELS 3 Yrotation Xrotation Zrotation
        JOINT RightWrist
        {
         OFFSET 0.000000 -25.659300 0.000000
         CHANNELS 3 Yrotation Xrotation Zrotation
         End Site
         {
          OFFSET 0.000000 -18.994300 0.000000
         }
        }
       }
      }
     }
     JOINT LeftCollar
     {
      OFFSET 3.157200 10.367500 0.000000
      CHANNELS 3 Yrotation Xrotation Zrotation
      JOINT LeftShoulder
      {
       OFFSET 14.482500 0.000000 0.000000
       CHANNELS 3 Yrotation Xrotation Zrotation
       JOINT LeftElbow
       {
        OFFSET 0.000000 -31.707800 0.000000
        CHANNELS 3 Yrotation Xrotation Zrotation
        JOINT LeftWrist
        {
         OFFSET 0.000000 -25.659300 0.000000
         CHANNELS 3 Yrotation Xrotation Zrotation
         End Site
         {
          OFFSET 0.000000 -18.994300 0.000000
         }
        }
       }
      }
     }
    }
   }
  }
 }
 JOINT RightHip
 {
  OFFSET -8.365600 -0.032100 -0.003200
  CHANNELS 3 Yrotation Xrotation Zrotation
  JOINT RightKnee
  {
   OFFSET 0.000000 -43.980000 0.003100
   CHANNELS 3 Yrotation Xrotation Zrotation
   JOINT RightAnkle
   {
    OFFSET 0.000000 -42.882800 0.005200
    CHANNELS 3 Yrotation Xrotation Zrotation
    JOINT RightToe
    {
     OFFSET 0.000000 -4.915500 10.826300
     CHANNELS 3 Yrotation Xrotation Zrotation
     End Site
     {
      OFFSET 0.000000 -1.517500 6.175900
     }
    }
   }
  }
 }
 JOINT LeftHip
 {
  OFFSET 8.365600 -0.032100 -0.003200
  CHANNELS 3 Yrotation Xrotation Zrotation
  JOINT LeftKnee
  {
   OFFSET 0.000000 -43.980000 0.003100
   CHANNELS 3 Yrotation Xrotation Zrotation
   JOINT LeftAnkle
   {
    OFFSET 0.000000 -42.882800 0.005200
    CHANNELS 3 Yrotation Xrotation Zrotation
    JOINT LeftToe
    {
     OFFSET 0.000000 -4.915500 10.826300
     CHANNELS 3 Yrotation Xrotation Zrotation
     End Site
     {
      OFFSET 0.000000 -1.517500 6.175900
     }
    }
   }
  }
 }
}
MOTION
Frames: 12
Frame Time: 0.008333
0.000000 91.618600 0.000000 0.000000 -5.767877 0.000000 0.000000 11.653817 0.000000 0.000000 -5.885947 0.000000 0.000000 -0.000000 0.000000 0.000000 -0.000000 0.000000 0.000000 12.528835 0.000000 0.000000 0.711642 0.000000 0.000000 -0.000000 0.000000 0.000000 0.000000 -90.000000 0.000000 -2.309062 0.000000 0.000000 2.309062 0.000000 0.000000 -0.000000 0.000000 0.000000 -0.000000 90.000000 0.000000 -2.309062 0.000000 0.000000 2.309062 0.000000 0.000000 8.520406 0.000000 0.000000 1.905762 0.000000 -0.000000 -4.658285 0.000000 0.000000 -0.000000 0.000000 0.000000 8.520406 0.000000 0.000000 1.905762 0.000000 -0.000000 -4.658285 0.000000 0.000000 -0.000000 0.000000
3.850536 126.421171 43.927073 174.372320 -18.748393 -3.829490 -0.148782 12.673538 1.909580 -0.026710 0.984853 0.149059 -0.039605 1.660674 0.255286 -0.097487 11.545566 1.736705 -4.116122 17.517356 -2.435430 -3.755647 -7.214127 -1.672765 7.561315 4.914326 -4.367492 18.132548 -25.778653 -18.810031 -75.001582 -39.283202 118.809785 -29.034548 -12.673070 -30.558793 -2.616604 11.266422 -0.663007 24.550287 -8.863975 -7.835121 111.420881 -40.742493 -150.991046 31.249505 -13.139311 21.275501 9.276900 -63.007482 -6.171317 -91.518601 78.878280 -85.422618 5.044001 5.767213 -15.993791 -0.009593 -0.006712 -0.004355 -19.050549 -64.406937 0.337407 104.132538 83.254235 98.977085 -6.995454 -25.572302 -0.093922 0.014579 0.007747 0.006620
3.848706 126.411332 43.921523 174.400008 -18.579083 -3.856395 -0.186720 12.555982 1.923871 -0.031976 1.022909 0.145805 -0.033726 1.589544 0.260067 -0.153450 11.529524 1.737380 -4.049067 17.596775 -2.433083 -3.692710 -7.134759 -1.683674 7.687247 5.058808 -4.348487 17.709409 -25.811281 -18.815067 -75.573444 -39.264218 119.759532 -29.186866 -11.949266 -29.878073 -2.571320 11.300937 -0.661426 24.691242 -8.759596 -7.912346 111.303532 -40.505718 -151.684849 31.373779 -12.705198 20.234033 9.241400 -63.178008 -6.161933 -91.476588 78.872442 -85.385881 5.039687 5.772313 -16.002439 -0.007367 -0.004807 -0.003345 -19.276726 -64.568104 0.521235 104.180052 83.287835 99.024377 -6.963189 -25.619467 -0.104937 0.016371 0.009320 0.007434
3.846358 126.401790 43.910736 174.433353 -18.414689 -3.885543 -0.228066 12.444367 1.939505 -0.031164 1.016943 0.145938 -0.047067 1.613972 0.256708 -0.189343 11.465489 1.745109 -3.975690 17.672669 -2.427787 -3.627170 -7.061974 -1.689851 7.818569 5.231756 -4.335874 17.209377 -25.861843 -18.849443 -76.252430 -39.282016 120.806859 -29.358245 -11.157582 -28.862298 -2.559702 11.331204 -0.678018 24.806664 -8.689908 -7.964526 111.317382 -40.280850 -152.469294 31.491749 -12.316074 19.157837 9.194961 -63.342291 -6.139639 -91.439102 78.861015 -85.358231 5.036523 5.775937 -16.005756 -0.002819 -0.004715 -0.001280 -19.481934 -64.719454 0.691883 104.224734 83.318471 99.066452 -6.964491 -25.675006 -0.094443 0.018316 0.012368 0.008318
3.841612 126.392538 43.896192 174.469926 -18.257992 -3.905686 -0.255061 12.464126 1.939702 -0.033951 0.955208 0.149289 -0.056385 1.628774 0.254169 -0.229228 11.348336 1.758654 -3.896139 17.744645 -2.417773 -3.563135 -7.000596 -1.690143 7.956856 5.421439 -4.323687 16.586275 -25.941562 -18.927958 -77.013167 -39.298781 121.949790 -29.572488 -10.324243 -27.487425 -2.582801 11.361656 -0.708270 24.896301 -8.675292 -7.991704 111.519195 -40.085630 -153.336902 31.597726 -11.954741 18.055251 9.179698 -63.495141 -6.168898 -91.424399 78.860613 -85.343082 5.041571 5.780269 -16.007606 -0.007115 -0.004151 -0.003230 -19.696525 -64.874776 0.844515 104.296995 83.321042 99.124033 -6.947063 -25.701263 -0.090638 0.015361 0.014213 0.006976
3.838717 126.383728 43.880724 174.510886 -18.107748 -3.941046 -0.271318 12.441043 1.956355 -0.036204 0.945383 0.149877 -0.060330 1.612559 0.255276 -0.268319 11.270141 1.777088 -3.822137 17.810336 -2.409205 -3.501955 -6.951366 -1.683863 8.097428 5.608295 -4.312095 15.712392 -26.118398 -18.991484 -77.692677 -39.301715 123.112636 -29.835295 -9.524084 -25.775341 -2.651703 11.392797 -0.755585 25.005020 -8.745985 -7.958454 111.903997 -39.915512 -154.237350 31.698458 -11.614764 16.888362 9.124189 -63.639135 -6.149542 -91.369694 78.866107 -85.288680 5.031184 5.784029 -16.016524 -0.006379 -0.006138 -0.002896 -19.937483 -65.017393 1.026649 104.349723 83.307297 99.160454 -6.947552 -25.763689 -0.070662 0.015410 0.009552 0.006998
3.835150 126.375835 43.863495 174.560854 -17.976934 -3.977506 -0.288685 12.410718 1.973710 -0.037337 0.939989 0.150499 -0.062290 1.603671 0.256399 -0.290689 11.271171 1.787437 -3.754080 17.816911 -2.384929 -3.444268 -6.912596 -1.673163 8.238885 5.732248 -4.292798 14.487469 -26.498225 -18.897753 -78.111698 -39.389654 124.174279 -30.170523 -8.903079 -23.829348 -2.766436 11.373325 -0.803666 25.247170 -8.918883 -7.862417 112.397428 -39.788192 -155.119041 31.801628 -11.295668 15.614870 9.071279 -63.754611 -6.132501 -91.337333 78.880389 -85.249265 4.986182 5.773042 -16.020097 -0.002718 -0.003457 -0.001234 -20.206078 -65.155254 1.199888 104.509299 83.296869 99.294505 -6.898781 -25.810263 -0.055380 0.006081 -0.004168 0.002761
3.829487 126.368294 43.846720 174.613396 -17.859447 -4.005251 -0.298368 12.388528 1.985172 -0.037945 0.936333 0.151396 -0.063361 1.597595 0.257853 -0.295564 11.263390 1.800268 -3.702002 17.832233 -2.361444 -3.391694 -6.883348 -1.662074 8.380177 5.865990 -4.264611 13.076997 -27.056725 -18.631216 -78.416110 -39.676527 125.070384 -30.599747 -8.614886 -21.783846 -2.926095 11.372543 -0.861637 25.762409 -9.191512 -7.777711 112.925027 -39.774928 -155.959044 31.900646 -10.991114 14.236564 9.026718 -63.861669 -6.140034 -91.352946 78.892272 -85.262004 4.951168 5.766297 -16.015754 -0.007240 -0.004290 -0.003287 -20.389958 -65.265054 1.320092 104.519807 83.316090 99.292099 -6.882532 -25.834611 -0.034759 0.010339 -0.004369 0.004694
3.824841 126.361566 43.830429 174.677807 -17.761142 -4.043308 -0.336221 12.339033 2.005043 -0.005229 0.972626 0.149022 -0.063548 1.593310 0.259607 -0.296317 11.248073 1.815333 -3.656258 17.854792 -2.342031 -3.347083 -6.860445 -1.651623 8.531864 6.001251 -4.231712 11.853057 -27.610748 -18.382509 -78.996377 -40.099063 125.807755 -30.981150 -8.752971 -19.839628 -3.106915 11.381092 -0.924091 26.537201 -9.553989 -7.743071 113.547496 -39.919333 -156.733789 31.977381 -10.703825 12.760690 8.971584 -63.921813 -6.135085 -91.255205 78.894506 -85.149879 4.925694 5.743259 -16.013556 -0.005054 0.005714 -0.002295 -20.582208 -65.353877 1.439965 104.513135 83.338560 99.270203 -6.860720 -25.836109 -0.020471 0.013104 -0.001769 0.005950
3.817915 126.355034 43.815742 174.743674 -17.676506 -4.069966 -0.310879 12.347389 2.023934 -0.019095 0.949274 0.152386 -0.062614 1.590000 0.261555 -0.289163 11.235813 1.831717 -3.620406 17.876979 -2.324973 -3.312516 -6.837568 -1.641523 8.678040 6.109717 -4.202745 10.997249 -28.028583 -18.288357 -80.125629 -40.548974 126.439475 -31.167471 -9.271844 -18.340768 -3.303037 11.372178 -0.985643 27.334308 -10.001794 -7.718148 114.492795 -40.211069 -157.398089 32.031465 -10.450071 11.126142 8.927232 -63.983096 -6.155868 -91.252076 78.904092 -85.138214 4.924490 5.728551 -16.016324 -0.005467 0.004244 -0.002482 -20.739915 -65.431664 1.511942 104.470610 83.349778 99.218864 -6.861039 -25.852151 0.002874 0.010661 -0.004625 0.004840
3.808184 126.348847 43.802221 174.815374 -17.608505 -4.082650 -0.276736 12.353160 2.032729 -0.082852 0.907076 0.156181 -0.014930 1.610337 0.261704 -0.276825 11.225209 1.850232 -3.594285 17.906566 -2.311768 -3.287640 -6.806146 -1.633451 8.807467 6.169276 -4.188257 10.361569 -28.330120 -18.275022 -81.767143 -41.028252 126.989561 -31.165430 -9.971476 -17.613418 -3.506271 11.339155 -1.046135 27.934444 -10.561362 -7.667024 115.870930 -40.641960 -157.859917 32.060171 -10.243017 9.226571 8.896364 -64.034681 -6.200457 -91.316463 78.916751 -85.200562 4.897393 5.717456 -16.012880 -0.007868 -0.002097 -0.003572 -20.783373 -65.501470 1.451012 104.329234 83.337874 99.098538 -6.871751 -25.853308 0.039011 -0.003016 -0.009940 -0.001369
3.800555 126.343074 43.791580 174.902645 -17.549798 -4.111446 -0.265654 12.336929 2.051887 -0.133720 0.893943 0.158868 0.038579 1.619896 0.262291 -0.263052 11.216020 1.871012 -3.577032 17.953478 -2.304595 -3.271203 -6.755293 -1.629973 8.920033 6.164160 -4.194050 9.683477 -28.615942 -18.169411 -83.575650 -41.562804 127.338089 -30.975843 -10.646852 -17.707215 -3.698622 11.281010 -1.100439 28.344404 -11.258679 -7.622300 117.447495 -41.234833 -157.999209 32.020374 -10.066931 6.995378 8.836822 -64.060689 -6.228170 -91.328485 78.935680 -85.204891 4.921552 5.694603 -16.015720 -0.003935 -0.004422 -0.001786 -20.870079 -65.554408 1.440894 104.149243 83.359910 98.922165 -6.831688 -25.827746 0.057171 -0.006692 -0.010789 -0.003038
